# xmcd
#
# Track frame offsets: 
#        150
#        16498
#        34221
#        47793
#        66227
#        82961
#        99205
#        117739
#        135024
#        156421
#        174096
#        196031
#        208078
#        225448
#        239216
#        256122
#        277734
#        296313
#        310197
#        329320
#        345064
#
# Disc length: 4783 seconds
#
# Revision: 2
# Processed by: cddbd v1.5.2PL0 Copyright (c) Steve Scherf et al.
# Submitted via: ExactAudioCopy v1.3
#
DISCID=1412ad15
DTITLE=Various Artist - Akella Presents - vol.46 - Country-Blues  CD1
DYEAR=2014
DGENRE=Country-Blues
TTITLE0=Jeremy Spencer - Durango
TTITLE1=Keb' Mo' - The Worst Is Yet To Come
TTITLE2=Eric Clapton - Since You Said Goodbye
TTITLE3=Guy Davis - Grandma's Tea House
TTITLE4=Malcolm Holcombe - Pitiful Blues
TTITLE5=Rick Vito - Everybody Gets Lucky Sometimes
TTITLE6=J.J. Cale - Blues for Mama
TTITLE7=Terry Taylor - I Can't Be Satisfied
TTITLE8=Too Slim and the Taildraggers - Drinkin' Blues
TTITLE9=The Wood Brothers - Rainbow
TTITLE10=Graham Parker - England's Latest Clown
TTITLE11=John Mellencamp - To Washington
TTITLE12=Kenny Neal - Lovers Will
TTITLE13=Eric Clapton and Tom Petty - I Got The Same Old Blues
TTITLE14=Neal Black and The Healers - Goin Down The Road
TTITLE15=Don Nix - Like A Road Leading Home
TTITLE16=Duke Robillard - Who'll Stop The Rain
TTITLE17=John Mooney - One Step Forward
TTITLE18=Roy Rogers - For The Love Of A Woman
TTITLE19=Mungo Jerry - Hello Nadine
TTITLE20=Chet Atkins - On The Road Again
EXTD=
EXTT0=
EXTT1=
EXTT2=
EXTT3=
EXTT4=
EXTT5=
EXTT6=
EXTT7=
EXTT8=
EXTT9=
EXTT10=
EXTT11=
EXTT12=
EXTT13=
EXTT14=
EXTT15=
EXTT16=
EXTT17=
EXTT18=
EXTT19=
EXTT20=
PLAYORDER=
